<svg xmlns="http://www.w3.org/2000/svg" viewBox="0 0 96 96" role="img" aria-labelledby="title desc">
  <title id="title">CasUSDT.com logo</title>
  <desc id="desc">Gold casino chip with CasUSDT monogram.</desc>
  <defs>
    <radialGradient id="gold" cx="35%" cy="26%" r="72%">
      <stop offset="0" stop-color="#fff3bd"/>
      <stop offset="0.43" stop-color="#d8b46a"/>
      <stop offset="1" stop-color="#7a5617"/>
    </radialGradient>
    <linearGradient id="dark" x1="20" y1="12" x2="76" y2="84">
      <stop offset="0" stop-color="#17130d"/>
      <stop offset="1" stop-color="#050609"/>
    </linearGradient>
  </defs>
  <circle cx="48" cy="48" r="45" fill="url(#dark)" stroke="#d8b46a" stroke-width="3"/>
  <circle cx="48" cy="48" r="34" fill="url(#gold)" stroke="#fff0ad" stroke-width="1.5"/>
  <circle cx="48" cy="48" r="25" fill="#0c0b0a" stroke="#8b681e" stroke-width="2"/>
  <g fill="#fff0ad">
    <rect x="45" y="5" width="6" height="13" rx="2"/>
    <rect x="45" y="78" width="6" height="13" rx="2"/>
    <rect x="78" y="45" width="13" height="6" rx="2"/>
    <rect x="5" y="45" width="13" height="6" rx="2"/>
    <rect x="69" y="16" width="6" height="12" rx="2" transform="rotate(45 72 22)"/>
    <rect x="21" y="68" width="6" height="12" rx="2" transform="rotate(45 24 74)"/>
    <rect x="68" y="69" width="12" height="6" rx="2" transform="rotate(45 74 72)"/>
    <rect x="16" y="21" width="12" height="6" rx="2" transform="rotate(45 22 24)"/>
  </g>
  <text x="48" y="55" text-anchor="middle" font-family="Georgia, 'Times New Roman', serif" font-size="22" font-weight="700" fill="#f7d889" letter-spacing="0">CU</text>
</svg>
